<svg width="42" height="42" viewBox="0 0 42 42" fill="none" xmlns="http://www.w3.org/2000/svg">
<path d="M21 12.25V5.25H3.5V36.75H38.5V12.25H21ZM10.5 33.25H7V29.75H10.5V33.25ZM10.5 26.25H7V22.75H10.5V26.25ZM10.5 19.25H7V15.75H10.5V19.25ZM10.5 12.25H7V8.75H10.5V12.25ZM17.5 33.25H14V29.75H17.5V33.25ZM17.5 26.25H14V22.75H17.5V26.25ZM17.5 19.25H14V15.75H17.5V19.25ZM17.5 12.25H14V8.75H17.5V12.25ZM35 33.25H21V29.75H24.5V26.25H21V22.75H24.5V19.25H21V15.75H35V33.25ZM31.5 19.25H28V22.75H31.5V19.25ZM31.5 26.25H28V29.75H31.5V26.25Z" fill="#CACFDA"/>
</svg>
